ply
format ascii 1.0
comment VCGLIB generated
element vertex 127
property float x
property float y
property float z
element face 250
property list uchar int vertex_indices
end_header
-0.3214654 0.5249385 -0.09858847 
-0.9269586 1.152849 0.4353304 
-0.5601721 0.9410666 0.4608122 
-0.4054339 0.9756303 0.4266731 
-0.3140725 0.8441749 0.4276112 
-0.2659242 1.218485 0.2734074 
-0.5753507 1.530637 0.2940096 
0.4429024 0.917448 0.2552932 
-0.6908979 1.183801 0.5375032 
-0.2810461 1.797644 -0.06249021 
0.04795938 0.6315109 0.5745552 
0.333369 0.9135975 0.4187574 
-0.1611389 1.877598 -0.2232843 
-0.05978372 1.22611 0.3685959 
-0.4832798 1.418128 0.04675596 
0.1500155 0.7877909 0.5503143 
0.01799153 0.4986199 0.5271724 
0.3880794 0.570812 0.3313604 
0.3233081 1.059621 -0.1262151 
-0.4595345 0.4959652 -0.09225488 
0.3645949 0.5720392 -0.1071952 
0.5420492 0.6551857 0.280031 
0.6181436 0.701568 0.1394733 
-0.8862182 1.090386 0.1114199 
0.4631693 0.7313809 0.2115396 
-0.5081881 1.550835 0.1129848 
-0.4373723 1.275252 0.2001972 
-0.7580279 1.566197 0.2000408 
0.2569018 1.228297 -0.02220342 
-0.7571471 1.793528 -0.497835 
-0.4822692 1.303566 -0.01858236 
0.3241417 1.181837 0.2528191 
0.172043 1.027153 0.4546778 
0.1719864 1.235435 0.3198789 
0.03074287 1.327618 0.1898065 
-0.148494 0.497766 0.4930671 
-0.6013578 0.4178879 0.4607239 
-0.212426 0.8998443 0.5771029 
-0.282533 0.5426161 0.3613729 
-0.5736457 0.467339 0.2514071 
-0.3834409 0.3404519 0.4076454 
-0.2571716 0.4484451 0.5362037 
-0.7874516 1.519172 0.365509 
-0.2595923 0.9570724 0.4494388 
-0.7258666 1.408045 0.4917104 
-0.7941653 1.712872 -0.4192644 
-0.6178598 1.539436 -0.1053687 
-0.4867191 0.3298928 -0.1340907 
-0.7644534 1.507289 -0.1055127 
-0.2109021 1.611655 -0.1499148 
-0.3686993 0.8827662 -0.2390414 
-0.5950299 0.4879093 0.02232503 
-0.6207042 1.639513 -0.5691108 
0.4007924 0.8754746 -0.1281446 
-0.03247388 1.01411 -0.2435668 
0.1450437 0.9212623 -0.2908639 
0.4471007 0.6741054 -0.007753319 
0.5521707 0.5922263 -0.03907209 
-0.7731631 0.735975 -0.05420675 
-0.8969773 1.197902 0.01231338 
0.08469554 1.180913 -0.1680608 
-0.9024495 1.389515 0.09387174 
0.2080199 0.354607 -0.02497314 
-0.1781245 0.9039446 -0.3882548 
-0.7978471 1.105482 -0.0390949 
-0.2899668 1.123002 -0.1822756 
-0.6778061 1.417956 -0.08952129 
-0.461056 0.7422367 -0.1762173 
0.1696997 0.6763557 -0.3063991 
0.1757402 0.3971748 -0.2130833 
-0.530662 1.078645 -0.2014937 
-0.2547159 0.5052926 -0.2710472 
-0.1387711 0.4351188 -0.274324 
-0.503997 0.4757086 0.1692827 
-0.7229766 0.4008887 0.07295185 
-0.6258516 0.7759889 -0.1986209 
-0.08372086 1.767543 -0.3030231 
-0.3046369 0.7904173 -0.3508211 
-0.6213856 1.20725 -0.09135047 
-0.7832846 0.9170445 -0.1319795 
-0.2574918 1.736549 -0.1992947 
-0.715571 1.500946 -0.4608031 
-0.06837567 0.3832609 0.1277711 
-0.951992 1.196701 0.2211719 
0.439555 0.4743341 0.3204385 
-0.8800328 0.8188713 0.05003441 
-0.7317194 1.063808 0.3811401 
0.173124 0.367584 0.4348324 
0.5736904 0.4808857 0.1802175 
-0.7181184 0.337446 -0.05927075 
0.296824 0.3511458 0.1851553 
-0.5791566 0.5690367 -0.009814727 
-0.7203717 0.6226683 0.1112534 
-0.7631966 0.7462131 0.3493455 
-0.7253993 0.8238113 0.4194205 
-0.6638778 0.3416111 0.3787384 
-0.4639904 0.7312701 0.4189827 
-0.5271468 0.6098329 0.3056322 
-0.03014556 1.294378 -0.03231305 
-0.4802073 1.191124 0.3187913 
-0.4021409 0.4659087 0.3947729 
0.4421008 0.9863194 0.03385305 
-0.1643711 1.608195 -0.08066846 
-0.2804105 1.250067 0.005585043 
-0.6701018 1.578495 -0.01506823 
-0.9177573 1.5076 0.1631849 
-0.7635791 1.537797 0.000383117 
-0.8801972 1.290747 0.4915851 
-0.9091447 0.9228799 0.2057884 
-0.4214943 1.725421 -0.03631055 
-0.6961484 1.712634 -0.5568262 
-0.2142565 0.3416134 0.5126915 
-0.6080267 1.565062 0.04404479 
-0.572836 1.473343 -0.01498909 
-0.146714 0.5765718 -0.3565918 
0.1084345 0.3414631 0.3408676 
0.02015959 0.39438 -0.1267316 
-0.3398494 0.3885705 -0.1168564 
-0.608764 0.3351825 0.1749511 
-0.3136544 0.3225224 -0.2795983 
-0.3397146 0.3530796 0.1629652 
-0.216569 0.3926829 0.353561 
0.05628765 0.3968076 0.3075755 
0.07097582 0.351416 0.02208553 
-0.640821 1.764091 -0.5525815 
0.09887487 0.3348893 -0.1855271 
0.4989024 0.463989 -0.006180543 
3 46 124 104 
3 34 5 13 
3 8 44 107 
3 33 34 13 
3 30 66 113 
3 2 86 94 
3 98 34 28 
3 103 5 34 
3 80 76 49 
3 96 97 100 
3 2 99 86 
3 96 2 94 
3 2 5 99 
3 5 26 99 
3 84 21 17 
3 66 81 52 
3 25 109 112 
3 3 2 96 
3 100 4 96 
3 96 4 3 
3 84 17 90 
3 3 5 2 
3 9 109 25 
3 4 43 3 
3 32 33 13 
3 38 4 100 
3 38 35 4 
3 98 60 65 
3 15 32 37 
3 35 38 41 
3 66 52 46 
3 46 113 66 
3 21 24 17 
3 112 6 25 
3 13 3 43 
3 13 5 3 
3 35 10 37 
3 10 15 37 
3 35 16 10 
3 88 21 84 
3 57 22 88 
3 8 6 44 
3 17 16 87 
3 99 6 8 
3 86 99 8 
3 25 12 9 
3 102 12 25 
3 101 31 7 
3 10 17 15 
3 99 26 6 
3 87 16 35 
3 17 7 11 
3 111 87 35 
3 24 56 101 
3 69 20 62 
3 6 42 44 
3 22 21 88 
3 11 15 17 
3 57 88 126 
3 121 40 120 
3 17 10 16 
3 105 106 61 
3 53 101 56 
3 31 33 32 
3 14 102 25 
3 11 31 32 
3 19 0 71 
3 86 83 23 
3 124 46 52 
3 74 73 51 
3 118 39 73 
3 87 90 17 
3 0 67 50 
3 91 73 97 
3 64 23 59 
3 20 53 56 
3 61 107 105 
3 107 42 105 
3 68 53 20 
3 119 47 71 
3 53 18 101 
3 85 108 23 
3 14 25 6 
3 11 32 15 
3 76 12 102 
3 113 14 30 
3 21 22 24 
3 106 27 104 
3 105 42 27 
3 56 24 22 
3 83 61 59 
3 27 6 112 
3 6 27 42 
3 30 26 5 
3 30 5 103 
3 30 14 26 
3 101 28 31 
3 0 19 67 
3 104 27 112 
3 104 29 106 
3 14 6 26 
3 29 124 110 
3 28 34 31 
3 34 33 31 
3 124 29 104 
3 110 45 29 
3 100 41 38 
3 41 100 40 
3 39 100 97 
3 40 100 36 
3 36 39 95 
3 81 110 52 
3 95 39 118 
3 70 50 75 
3 51 73 91 
3 43 32 13 
3 37 43 4 
3 107 44 42 
3 35 37 4 
3 8 107 1 
3 102 14 49 
3 73 74 118 
3 93 94 108 
3 94 86 108 
3 111 41 40 
3 71 77 114 
3 1 107 61 
3 51 19 89 
3 48 110 81 
3 65 60 54 
3 50 63 77 
3 77 71 50 
3 19 71 47 
3 0 50 71 
3 97 73 39 
3 66 48 81 
3 66 61 48 
3 109 80 112 
3 108 86 23 
3 23 83 59 
3 58 85 79 
3 23 79 85 
3 54 50 65 
3 106 48 61 
3 51 91 19 
3 23 64 79 
3 61 66 59 
3 74 51 89 
3 1 61 83 
3 85 58 92 
3 63 54 55 
3 50 54 63 
3 54 18 55 
3 60 18 54 
3 60 28 18 
3 112 46 104 
3 112 113 46 
3 101 18 28 
3 53 55 18 
3 30 70 78 
3 56 22 57 
3 109 12 80 
3 98 28 60 
3 103 65 30 
3 113 112 80 
3 30 65 70 
3 37 32 43 
3 126 20 57 
3 58 79 75 
3 57 20 56 
3 67 91 75 
3 76 80 12 
3 78 66 30 
3 66 78 64 
3 70 64 78 
3 124 52 110 
3 67 75 50 
3 49 14 113 
3 62 20 126 
3 50 70 65 
3 20 69 68 
3 123 115 82 
3 47 89 19 
3 55 53 68 
3 69 114 68 
3 76 102 49 
3 79 64 70 
3 59 66 64 
3 19 91 67 
3 63 55 68 
3 69 72 114 
3 69 125 72 
3 114 63 68 
3 58 75 91 
3 79 70 75 
3 71 114 72 
3 125 119 72 
3 71 72 119 
3 77 63 114 
3 111 35 41 
3 82 117 116 
3 113 80 49 
3 126 90 62 
3 90 123 62 
3 125 123 116 
3 86 1 83 
3 87 111 115 
3 87 115 90 
3 95 40 36 
3 88 84 90 
3 109 9 12 
3 85 93 108 
3 122 121 82 
3 85 92 93 
3 62 125 69 
3 8 1 86 
3 58 91 92 
3 92 97 93 
3 91 97 92 
3 118 74 89 
3 36 100 39 
3 118 89 47 
3 97 94 93 
3 120 118 47 
3 117 47 119 
3 97 96 94 
3 40 95 118 
3 88 90 126 
3 62 123 125 
3 119 116 117 
3 115 122 82 
3 121 120 117 
3 118 120 40 
3 111 121 122 
3 111 40 121 
3 34 98 103 
3 24 7 17 
3 11 7 31 
3 29 45 106 
3 101 7 24 
3 105 27 106 
3 110 48 45 
3 48 106 45 
3 116 123 82 
3 103 98 65 
3 82 121 117 
3 125 116 119 
3 120 47 117 
3 115 111 122 
3 123 90 115 
