ply
format ascii 1.0
comment VCGLIB generated
element vertex 68
property float x
property float y
property float z
element face 136
property list uchar int vertex_indices
end_header
-5 0.415823 -1.9563 
5 0.415823 -1.9563 
-5 0 -2 
-5 1.98904 0.209057 
5 0 2 
5 0 -2 
5 -1.98904 0.209057 
-5 1.17557 1.61803 
-5 0 2 
-5 0.415823 1.9563 
5 1.98904 0.209057 
-5 1.98904 -0.209057 
-5 1.73205 -1 
-5 -1.98904 0.209057 
5 -1.17557 1.61803 
5 -0.415823 1.9563 
5 1.17557 1.61803 
-5 1.17557 -1.61803 
5 1.98904 -0.209057 
5 -1.48629 -1.33826 
5 -1.90211 -0.618033 
-5 -0.415823 1.9563 
5 1.73205 1 
5 1.90211 0.618033 
-5 1.90211 0.618033 
5 1.48629 -1.33826 
5 1.90211 -0.618033 
-5 1.90211 -0.618033 
-5 1.48629 -1.33826 
-5 -1.48629 1.33826 
5 -1.73205 -0.999999 
-5 -1.48629 -1.33826 
5 -1.17557 -1.61803 
-5 1.73205 0.999999 
-5 1.48629 1.33826 
5 1.73205 -0.999999 
5 1.17557 -1.61803 
-5 0.813473 -1.82709 
5 -0.813473 1.82709 
-5 -0.813473 1.82709 
-5 -1.90211 0.618033 
5 -1.73205 1 
-5 -1.73205 0.999999 
5 -1.98904 -0.209057 
-5 -1.98904 -0.209057 
-5 -0.813473 -1.82709 
5 -0.813473 -1.82709 
5 -0.415823 -1.9563 
5 0.415823 1.9563 
5 0.813473 1.82709 
5 1.48629 1.33826 
5 0.813473 -1.82709 
5 -1.48629 1.33826 
5 -1.90211 0.618033 
-5 -1.73205 -1 
-5 -0.415823 -1.9563 
-5 -1.17557 -1.61803 
-5 0.813473 1.82709 
-5 -1.17557 1.61803 
-5 -1.90211 -0.618033 
-5 -0.5 0.5 
5 -0.5 0.5 
-5 0.5 0.5 
5 0.5 0.5 
-5 -0.5 -0.5 
5 -0.5 -0.5 
-5 0.5 -0.5 
5 0.5 -0.5 
3 44 13 59 
3 59 13 40 
3 59 40 42 
3 59 42 29 
3 59 29 58 
3 59 58 39 
3 59 39 21 
3 59 21 8 
3 59 8 9 
3 59 9 57 
3 60 57 7 
3 62 33 24 
3 62 34 33 
3 62 11 66 
3 66 11 27 
3 59 27 12 
3 59 12 28 
3 59 28 17 
3 59 17 37 
3 59 37 0 
3 59 0 2 
3 59 2 55 
3 59 55 45 
3 59 45 56 
3 59 56 31 
3 59 31 54 
3 59 57 60 
3 64 59 60 
3 62 3 11 
3 59 64 27 
3 64 66 27 
3 62 24 3 
3 60 7 34 
3 60 34 62 
3 13 44 43 
3 6 13 43 
3 43 44 59 
3 20 43 59 
3 20 59 54 
3 20 54 30 
3 30 54 19 
3 19 54 31 
3 31 56 19 
3 19 56 32 
3 56 45 32 
3 32 45 46 
3 45 55 46 
3 46 55 47 
3 47 55 2 
3 47 2 5 
3 5 2 1 
3 1 2 0 
3 0 37 1 
3 1 37 51 
3 37 17 51 
3 51 17 36 
3 17 28 36 
3 36 28 25 
3 25 28 12 
3 35 12 26 
3 26 12 27 
3 25 12 35 
3 27 11 26 
3 26 11 18 
3 11 3 18 
3 18 3 10 
3 24 23 3 
3 3 23 10 
3 24 33 22 
3 23 24 22 
3 33 34 22 
3 22 34 50 
3 34 7 16 
3 50 34 16 
3 7 57 49 
3 16 7 49 
3 57 9 48 
3 49 57 48 
3 48 9 4 
3 9 8 4 
3 8 21 4 
3 4 21 15 
3 21 39 38 
3 15 21 38 
3 39 58 14 
3 38 39 14 
3 58 29 52 
3 14 58 52 
3 52 29 41 
3 29 42 41 
3 42 40 41 
3 41 40 53 
3 40 13 6 
3 53 40 6 
3 63 61 62 
3 62 61 60 
3 61 65 60 
3 60 65 64 
3 67 63 62 
3 66 67 62 
3 65 67 66 
3 64 65 66 
3 6 43 20 
3 19 6 30 
3 30 6 20 
3 32 6 19 
3 46 6 32 
3 47 6 46 
3 5 6 47 
3 1 6 5 
3 51 6 1 
3 36 6 51 
3 65 6 36 
3 63 67 26 
3 63 26 18 
3 63 18 10 
3 50 6 22 
3 16 6 50 
3 49 6 16 
3 48 6 49 
3 4 6 48 
3 15 6 4 
3 38 6 15 
3 14 6 38 
3 52 6 14 
3 41 6 52 
3 53 6 41 
3 25 65 36 
3 63 10 23 
3 22 61 23 
3 22 6 61 
3 61 63 23 
3 26 67 35 
3 67 25 35 
3 67 65 25 
3 65 61 6 
